<!DOCTYPE svg PUBLIC "-//W3C//DTD SVG 1.1//EN" "http://www.w3.org/Graphics/SVG/1.1/DTD/svg11.dtd">
<!-- Uploaded to: SVG Repo, www.svgrepo.com, Transformed by: SVG Repo Mixer Tools -->
<svg version="1.1" xmlns="http://www.w3.org/2000/svg" xmlns:xlink="http://www.w3.org/1999/xlink" width="800px" height="800px" viewBox="0 0 96 96" enable-background="new 0 0 96 96" xml:space="preserve" fill="#f4a261">
<g id="SVGRepo_bgCarrier" stroke-width="0"/>
<g id="SVGRepo_tracerCarrier" stroke-linecap="round" stroke-linejoin="round"/>
<g id="SVGRepo_iconCarrier"> <g id="Base" display="none"> </g> <g id="Dibujo"> <g> <path d="M69.24,40.488C72.173,37.886,74,34.094,74,30c0-1.104-0.896-2-2-2c-5.514,0-10-4.486-10-10c0-1.104-0.896-2-2-2 c-7.078,0-12.93,5.284-13.857,12.111C39.295,28.849,33.61,33.6,31.688,40.184C31.112,40.079,30.507,40,30,40 c-6.065,0-11,4.935-11,11s4.935,11,11,11h7v4c0,1.104,0.896,2,2,2c1.104,0,2-0.896,2-2v-4h14v4c0,1.104,0.896,2,2,2 c1.104,0,2-0.896,2-2v-4h7c6.065,0,11-4.935,11-11C77,46.062,73.729,41.875,69.24,40.488z M58.167,20.168 c0.935,5.985,5.676,10.728,11.661,11.664c-0.615,3.246-2.84,6.006-5.862,7.326c-2.155-5.948-7.448-10.206-13.792-11.008 C50.933,24.111,54.125,20.92,58.167,20.168z M66,58H30c-3.86,0-7-3.141-7-7s3.14-7,7-7c0.277,0,0.723,0.068,1.193,0.162V46 c0,1.104,0.896,2,2,2s2-0.896,2-2v-3.221C36.268,36.527,41.63,32,48,32c6.369,0,11.732,4.527,12.807,10.779V46 c0,1.104,0.896,2,2,2s2-0.896,2-2v-1.837C65.277,44.069,65.726,44,66,44c3.859,0,7,3.141,7,7S69.859,58,66,58z"/> <path d="M48,66c-1.104,0-2,0.896-2,2v4c0,1.104,0.896,2,2,2s2-0.896,2-2v-4C50,66.896,49.104,66,48,66z"/> <path d="M48,78c-1.104,0-2,0.896-2,2v4c0,1.104,0.896,2,2,2s2-0.896,2-2v-4C50,78.896,49.104,78,48,78z"/> <path d="M39,72c-1.104,0-2,0.896-2,2v4c0,1.104,0.896,2,2,2c1.104,0,2-0.896,2-2v-4C41,72.896,40.104,72,39,72z"/> <path d="M57,72c-1.104,0-2,0.896-2,2v4c0,1.104,0.896,2,2,2c1.104,0,2-0.896,2-2v-4C59,72.896,58.104,72,57,72z"/> </g> </g> </g>
</svg>