<!DOCTYPE svg PUBLIC "-//W3C//DTD SVG 1.1//EN" "http://www.w3.org/Graphics/SVG/1.1/DTD/svg11.dtd">
<!-- Uploaded to: SVG Repo, www.svgrepo.com, Transformed by: SVG Repo Mixer Tools -->
<svg version="1.1" xmlns="http://www.w3.org/2000/svg" xmlns:xlink="http://www.w3.org/1999/xlink" width="800px" height="800px" viewBox="0 0 96 96" enable-background="new 0 0 96 96" xml:space="preserve" fill="#f4a261">
<g id="SVGRepo_bgCarrier" stroke-width="0"/>
<g id="SVGRepo_tracerCarrier" stroke-linecap="round" stroke-linejoin="round"/>
<g id="SVGRepo_iconCarrier"> <g id="Base" display="none"> </g> <g id="Dibujo"> <g> <path d="M69.24,40.488C72.173,37.886,74,34.094,74,30c0-1.104-0.896-2-2-2c-5.514,0-10-4.486-10-10c0-1.104-0.896-2-2-2 c-7.078,0-12.931,5.284-13.857,12.111c-6.848,0.737-12.533,5.488-14.454,12.072C31.112,40.079,30.507,40,30,40 c-6.065,0-11,4.935-11,11s4.935,11,11,11c1.104,0,2-0.896,2-2s-0.896-2-2-2c-3.859,0-7-3.141-7-7s3.141-7,7-7 c0.277,0,0.723,0.068,1.193,0.162V46c0,1.104,0.895,2,2,2s2-0.896,2-2v-3.219C36.266,36.528,41.629,32,48,32 c6.37,0,11.733,4.528,12.807,10.782V46c0,1.104,0.896,2,2,2s2-0.896,2-2v-1.838C65.277,44.068,65.723,44,66,44 c3.859,0,7,3.141,7,7s-3.141,7-7,7c-1.105,0-2,0.896-2,2s0.895,2,2,2c6.065,0,11-4.935,11-11 C77,46.062,73.728,41.875,69.24,40.488z M50.174,28.15c0.759-4.039,3.952-7.23,7.994-7.982c0.934,5.985,5.675,10.728,11.66,11.664 c-0.615,3.246-2.84,6.006-5.862,7.326C61.811,33.21,56.519,28.952,50.174,28.15z"/> <path d="M49.485,52.06c-1.067-0.268-2.157,0.384-2.426,1.455l-6,24c-0.268,1.072,0.384,2.158,1.455,2.426 c0.163,0.041,0.326,0.06,0.487,0.06c0.895,0,1.711-0.606,1.938-1.515l6-24C51.208,53.413,50.557,52.327,49.485,52.06z"/> <path d="M57.485,58.06c-1.069-0.267-2.157,0.384-2.426,1.455l-3,12c-0.268,1.072,0.384,2.158,1.455,2.426 c0.163,0.041,0.326,0.06,0.487,0.06c0.895,0,1.711-0.606,1.938-1.515l3-12C59.208,59.413,58.557,58.327,57.485,58.06z"/> <path d="M38.485,58.06c-1.069-0.267-2.157,0.384-2.426,1.455l-3,12c-0.268,1.072,0.384,2.158,1.455,2.426 c0.163,0.041,0.326,0.06,0.487,0.06c0.895,0,1.711-0.606,1.938-1.515l3-12C40.208,59.413,39.557,58.327,38.485,58.06z"/> </g> </g> </g>
</svg>